<svg width="23" height="25" viewBox="0 0 23 25" fill="#0c2b4d" xmlns="http://www.w3.org/2000/svg">
<path d="M19.8538 11.0215H18.6752V7.64655C18.6752 3.71842 15.3261 0.521545 11.2109 0.521545C7.09576 0.521545 3.74665 3.71842 3.74665 7.64655V11.0215H2.56808C1.26674 11.0215 0.210938 12.0294 0.210938 13.2715V22.2715C0.210938 23.5137 1.26674 24.5215 2.56808 24.5215H19.8538C21.1551 24.5215 22.2109 23.5137 22.2109 22.2715V13.2715C22.2109 12.0294 21.1551 11.0215 19.8538 11.0215ZM14.7467 11.0215H7.67522V7.64655C7.67522 5.78561 9.26138 4.27155 11.2109 4.27155C13.1605 4.27155 14.7467 5.78561 14.7467 7.64655V11.0215Z" fill="#0c2b4d"/>
</svg>
